<svg width="1198" height="1200" viewBox="0 0 1198 1200" fill="none" xmlns="http://www.w3.org/2000/svg">
<path d="M319.934 194.156L776.794 194.094C856.311 194.09 939.246 192.765 1018.42 194.306C1014.29 205.283 1004.82 224.6 999.781 235.907L948.6 348.491L785.747 710.211L713.555 870.651C705.851 887.844 698.048 904.992 690.146 922.095C687.56 927.781 684.305 940.541 678.597 941.535C676.093 939.89 670.949 927.114 669.202 923.497C661.074 906.816 653.063 890.078 645.169 873.285C638.682 859.511 630.884 847.23 624.372 833.792C613.633 811.63 603.659 788.992 592.89 766.81L389.15 343.414C380.07 324.113 318.236 202.234 319.934 194.156Z" fill="#F19B91"/>
<path d="M580.205 0.424917C704.698 -4.26393 827.559 29.9482 931.711 98.306C956.693 114.648 972.577 129.391 995.624 146.758C872.43 149.022 749.214 149.935 626 149.498L414.743 149.193C376.645 149.197 338.43 149.136 300.332 149.559C295.35 149.614 284.105 150.683 279.474 152.443C275.649 153.898 270.398 159.923 268.893 164.196C264.935 175.439 272.266 188.1 277.055 198.126C282.602 209.196 288.083 220.299 293.497 231.434C295.955 236.504 300.657 244.965 298.882 250.074C292.972 254.569 177.48 249.488 155.715 253.724C134.401 271.031 147.747 289.994 157.492 310.001C163.234 321.79 169.138 333.54 174.842 345.353C141.413 350.556 100.722 341.491 66.9372 348.354C49.4705 351.902 68.2837 324.028 71.1682 318.476C95.9485 270.778 127.475 227.435 164.119 188.209C272.261 72.6843 422.032 5.09115 580.205 0.424917Z" fill="#BED2D2"/>
<path d="M290.642 295.451C300.256 295.869 312.302 294.43 321.177 297.181C324.946 298.268 326.887 303.212 328.571 306.575C388.382 426.01 444.861 547.285 503.512 667.239L569.402 801.535C584.725 832.066 606.703 873.102 618.811 903.871C617.632 909.876 614.674 917.276 612.234 922.93C596.535 959.319 578.861 994.797 564.001 1031.55C563.14 1033.68 562.375 1033.92 560.449 1034.4C555.072 1031.98 549.331 1017.23 546.498 1011.18L193.72 297.365C222.805 294.585 260.932 296.677 290.642 295.451Z" fill="#F19B91"/>
<path d="M75.3197 392.171C87.7893 391.059 116.901 391.774 130.088 391.684C143.094 391.596 184.669 390.776 195.098 393.199C200.366 396.69 256.809 517.31 264.499 533.387L424.612 865.457L468.423 956.661C473.19 966.363 492.53 1003.66 494.467 1011.73C492.622 1020.03 483.49 1038.76 479.531 1047.42L455.093 1101.36C450.058 1112.01 445.559 1122.73 440.849 1133.51C439.417 1136.79 438.364 1138.16 434.818 1138.17C431.819 1136.34 429.736 1132.79 428.261 1129.66C410.025 1091.01 391.469 1052.4 372.897 1013.92L246.008 750.515L84.7108 420.867C82.3026 415.908 75.3569 402.355 73.854 396.401C74.4337 394.728 74.9223 393.318 75.3197 392.171Z" fill="#ED7555"/>
<path d="M1054.62 216.445C1156.63 334.486 1207.27 488.373 1195.31 643.922C1183.87 803.665 1109.6 952.369 988.767 1057.47C901.013 1132.9 802.449 1175.95 688.563 1193.13C673.203 1195.48 657.731 1197.03 642.211 1197.77C635.771 1198.13 605.101 1198.83 601.683 1199.92H599.523C591.832 1198.03 570.775 1198.84 561.489 1198.18C533.588 1196.2 483.957 1191.36 458.439 1182.23C474.361 1146.64 493.553 1111.79 510.214 1076.49C512.742 1071.14 515.553 1065.47 518.448 1060.31L543.527 1098.6C547.592 1104.78 555.297 1117.02 560.003 1122.26C572.411 1101.68 584.769 1074.61 595.424 1052.72L642.588 956.801C656.111 974.76 667.402 999.625 679.846 1018.37C734.347 909.435 786.054 794.005 837.886 683.404L976.087 385.953C1002.09 329.876 1029.44 272.705 1054.62 216.445Z" fill="#BED2D2"/>
<path d="M0 594.338L0.177974 593.54C1.46095 587.575 2.41104 578.511 2.23053 572.375C1.48119 546.898 19.7161 420.608 33.4543 408.058L35.8035 407.38C35.9882 407.488 37.9805 408.647 37.9805 408.647C56.7438 444.82 73.0795 482.604 91.2777 518.945C119.473 575.557 146.984 632.506 173.806 689.781L303.983 959.035L371.498 1099.79C375.989 1109.09 400.079 1156.07 400.51 1163.11C395.744 1165.04 390.171 1162.46 385.662 1160.55C251.008 1103.65 146.345 1019.09 75.8892 889.351C65.9594 871.065 55.5914 852.882 47.8398 833.517C32.8516 796.188 21.1698 757.615 12.9289 718.243C7.5702 693.247 4.43098 670.88 2.78746 645.231C2.03849 633.542 3.13789 614.243 0 603.535V594.338Z" fill="#5F8C84"/>
</svg>
